<mxfile host="app.diagrams.net" modified="2023-01-04T01:23:46.619Z" agent="5.0 (X11; Linux x86_64) AppleWebKit/537.36 (KHTML, like Gecko) Chrome/108.0.0.0 Safari/537.36" etag="ewDwjecW-6Lm_xcc_tC_" version="15.8.9" type="github">
  <diagram id="91MwsRFWGDt2XD7xXxqJ" name="Page-1">
    <mxGraphModel dx="897" dy="690" grid="1" gridSize="10" guides="1" tooltips="1" connect="1" arrows="1" fold="1" page="1" pageScale="1" pageWidth="827" pageHeight="1169" math="0" shadow="0">
      <root>
        <mxCell id="0" />
        <mxCell id="1" parent="0" />
        <mxCell id="gEWWCz81dc7d-AvvKmdt-1" value="A" style="rounded=0;whiteSpace=wrap;html=1;" vertex="1" parent="1">
          <mxGeometry x="400" y="200" width="120" height="60" as="geometry" />
        </mxCell>
        <mxCell id="gEWWCz81dc7d-AvvKmdt-2" value="B" style="rounded=0;whiteSpace=wrap;html=1;" vertex="1" parent="1">
          <mxGeometry x="400" y="440" width="120" height="60" as="geometry" />
        </mxCell>
        <mxCell id="gEWWCz81dc7d-AvvKmdt-3" value="ALU" style="rounded=0;whiteSpace=wrap;html=1;" vertex="1" parent="1">
          <mxGeometry x="400" y="320" width="120" height="60" as="geometry" />
        </mxCell>
        <mxCell id="gEWWCz81dc7d-AvvKmdt-4" value="PC" style="rounded=0;whiteSpace=wrap;html=1;" vertex="1" parent="1">
          <mxGeometry x="120" y="200" width="120" height="60" as="geometry" />
        </mxCell>
        <mxCell id="gEWWCz81dc7d-AvvKmdt-5" value="MAR" style="rounded=0;whiteSpace=wrap;html=1;" vertex="1" parent="1">
          <mxGeometry x="120" y="320" width="120" height="60" as="geometry" />
        </mxCell>
        <mxCell id="gEWWCz81dc7d-AvvKmdt-6" value="IR" style="rounded=0;whiteSpace=wrap;html=1;" vertex="1" parent="1">
          <mxGeometry x="120" y="560" width="120" height="60" as="geometry" />
        </mxCell>
        <mxCell id="gEWWCz81dc7d-AvvKmdt-7" value="MEM" style="rounded=0;whiteSpace=wrap;html=1;" vertex="1" parent="1">
          <mxGeometry x="120" y="440" width="120" height="60" as="geometry" />
        </mxCell>
        <mxCell id="gEWWCz81dc7d-AvvKmdt-8" value="OUT" style="rounded=0;whiteSpace=wrap;html=1;" vertex="1" parent="1">
          <mxGeometry x="400" y="560" width="120" height="60" as="geometry" />
        </mxCell>
        <mxCell id="gEWWCz81dc7d-AvvKmdt-9" value="" style="shape=flexArrow;endArrow=none;html=1;rounded=0;strokeColor=none;endFill=0;" edge="1" parent="1">
          <mxGeometry width="50" height="50" relative="1" as="geometry">
            <mxPoint x="290" y="600" as="sourcePoint" />
            <mxPoint x="290" y="140" as="targetPoint" />
          </mxGeometry>
        </mxCell>
        <mxCell id="gEWWCz81dc7d-AvvKmdt-11" value="" style="shape=flexArrow;endArrow=none;html=1;rounded=0;endFill=0;fillColor=default;endSize=6;width=20;" edge="1" parent="1">
          <mxGeometry width="50" height="50" relative="1" as="geometry">
            <mxPoint x="320" y="620" as="sourcePoint" />
            <mxPoint x="320" y="200" as="targetPoint" />
          </mxGeometry>
        </mxCell>
        <mxCell id="gEWWCz81dc7d-AvvKmdt-12" value="" style="shape=flexArrow;endArrow=classic;startArrow=classic;html=1;rounded=0;entryX=0;entryY=0.5;entryDx=0;entryDy=0;" edge="1" parent="1" target="gEWWCz81dc7d-AvvKmdt-1">
          <mxGeometry width="100" height="100" relative="1" as="geometry">
            <mxPoint x="330" y="230" as="sourcePoint" />
            <mxPoint x="460" y="320" as="targetPoint" />
          </mxGeometry>
        </mxCell>
        <mxCell id="gEWWCz81dc7d-AvvKmdt-13" value="" style="shape=flexArrow;endArrow=none;startArrow=block;html=1;rounded=0;endSize=6;fillColor=default;entryX=0.5;entryY=1;entryDx=0;entryDy=0;startFill=0;endFill=0;" edge="1" parent="1" source="gEWWCz81dc7d-AvvKmdt-3" target="gEWWCz81dc7d-AvvKmdt-1">
          <mxGeometry width="100" height="100" relative="1" as="geometry">
            <mxPoint x="360" y="520" as="sourcePoint" />
            <mxPoint x="460" y="420" as="targetPoint" />
          </mxGeometry>
        </mxCell>
        <mxCell id="gEWWCz81dc7d-AvvKmdt-14" value="" style="shape=flexArrow;endArrow=classic;startArrow=none;html=1;rounded=0;endSize=6;fillColor=default;entryX=0.5;entryY=1;entryDx=0;entryDy=0;startFill=0;" edge="1" parent="1" source="gEWWCz81dc7d-AvvKmdt-2" target="gEWWCz81dc7d-AvvKmdt-3">
          <mxGeometry width="100" height="100" relative="1" as="geometry">
            <mxPoint x="360" y="520" as="sourcePoint" />
            <mxPoint x="460" y="420" as="targetPoint" />
          </mxGeometry>
        </mxCell>
        <mxCell id="gEWWCz81dc7d-AvvKmdt-15" value="" style="shape=flexArrow;endArrow=classic;startArrow=classic;html=1;rounded=0;endSize=6;fillColor=default;entryX=0;entryY=0.5;entryDx=0;entryDy=0;" edge="1" parent="1" target="gEWWCz81dc7d-AvvKmdt-2">
          <mxGeometry width="100" height="100" relative="1" as="geometry">
            <mxPoint x="330" y="470" as="sourcePoint" />
            <mxPoint x="460" y="420" as="targetPoint" />
          </mxGeometry>
        </mxCell>
        <mxCell id="gEWWCz81dc7d-AvvKmdt-16" value="" style="shape=flexArrow;endArrow=classic;startArrow=none;html=1;rounded=0;endSize=6;fillColor=default;entryX=0;entryY=0.5;entryDx=0;entryDy=0;startFill=0;" edge="1" parent="1" target="gEWWCz81dc7d-AvvKmdt-8">
          <mxGeometry width="100" height="100" relative="1" as="geometry">
            <mxPoint x="330" y="590" as="sourcePoint" />
            <mxPoint x="460" y="420" as="targetPoint" />
          </mxGeometry>
        </mxCell>
        <mxCell id="gEWWCz81dc7d-AvvKmdt-17" value="" style="shape=flexArrow;endArrow=classic;startArrow=classic;html=1;rounded=0;endSize=6;fillColor=default;entryX=1;entryY=0.5;entryDx=0;entryDy=0;" edge="1" parent="1" target="gEWWCz81dc7d-AvvKmdt-4">
          <mxGeometry width="100" height="100" relative="1" as="geometry">
            <mxPoint x="310" y="230" as="sourcePoint" />
            <mxPoint x="460" y="420" as="targetPoint" />
          </mxGeometry>
        </mxCell>
        <mxCell id="gEWWCz81dc7d-AvvKmdt-18" value="" style="shape=flexArrow;endArrow=classic;startArrow=classic;html=1;rounded=0;endSize=6;fillColor=default;entryX=1;entryY=0.5;entryDx=0;entryDy=0;" edge="1" parent="1" target="gEWWCz81dc7d-AvvKmdt-5">
          <mxGeometry width="100" height="100" relative="1" as="geometry">
            <mxPoint x="310" y="350" as="sourcePoint" />
            <mxPoint x="460" y="420" as="targetPoint" />
          </mxGeometry>
        </mxCell>
        <mxCell id="gEWWCz81dc7d-AvvKmdt-19" value="" style="shape=flexArrow;endArrow=classic;startArrow=classic;html=1;rounded=0;endSize=6;fillColor=default;entryX=1;entryY=0.5;entryDx=0;entryDy=0;" edge="1" parent="1" target="gEWWCz81dc7d-AvvKmdt-7">
          <mxGeometry width="100" height="100" relative="1" as="geometry">
            <mxPoint x="310" y="470" as="sourcePoint" />
            <mxPoint x="460" y="420" as="targetPoint" />
          </mxGeometry>
        </mxCell>
        <mxCell id="gEWWCz81dc7d-AvvKmdt-20" value="" style="shape=flexArrow;endArrow=classic;startArrow=classic;html=1;rounded=0;endSize=6;fillColor=default;exitX=1;exitY=0.5;exitDx=0;exitDy=0;" edge="1" parent="1" source="gEWWCz81dc7d-AvvKmdt-6">
          <mxGeometry width="100" height="100" relative="1" as="geometry">
            <mxPoint x="360" y="520" as="sourcePoint" />
            <mxPoint x="310" y="590" as="targetPoint" />
          </mxGeometry>
        </mxCell>
      </root>
    </mxGraphModel>
  </diagram>
</mxfile>
